# xmcd
#
# Track frame offsets:
#	150
#	15676
#	27508
#	38941
#	52656
#	70606
#	85298
#	101556
#	117947
#	135212
#	147957
#	160666
#	172995
#	188506
#	199119
#
# Disc length: 2899 seconds
#
# Revision: 1
# Processed by: cddbd v1.5.2PL0 Copyright (c) Steve Scherf et al.
# Submitted via: audiograbber 1.83.01
#
DISCID=b80b510f
DTITLE=Chartbuster Best of 1977 - 80111
DYEAR=2005
DGENRE=Country
TTITLE0=Kenny Rogers - Daytime Friends
TTITLE1=Crystal Gayle - Don't It Make My Brown Eyes Blue
TTITLE2=Kendalls, The - Heaven's Just a Sin Away
TTITLE3=Dolly Parton - Here You Come Again
TTITLE4=Larry Gatlin - I Just Wish You Were Someone I Love
TTITLE5=Don Williams - I'm Just a Country Boy
TTITLE6=Ronnie Milsap - It Was Almost Like A Song
TTITLE7=Kenny Rogers - Lucille
TTITLE8=Waylon Jennings - Luckenbach, Texas
TTITLE9=Charlie Rich - Rollin' With The Flow
TTITLE10=Charley Pride - She's Just An Old Love Turned Memory
TTITLE11=Don Williams - Some Broken Hearts Never Mend
TTITLE12=Glen Campbell - Southern Nights
TTITLE13=Waylon Jennings - Wurlitzer Prize(I Don't Want to Get Over You)
TTITLE14=Crystal Gayle - You Never Miss A Real Good Thing
EXTD=Chartbuster Time Life Series
EXTT0=
EXTT1=
EXTT2=
EXTT3=
EXTT4=
EXTT5=
EXTT6=
EXTT7=
EXTT8=
EXTT9=
EXTT10=
EXTT11=
EXTT12=
EXTT13=
EXTT14=
PLAYORDER=
